HIERARCHY
ROOT RootJoint
{
    OFFSET   0.000000   0.000000   0.000000
    CHANNELS 6 Xposition Yposition Zposition Xrotation Yrotation Zrotation
    JOINT pelvis_lowerback
    {
        OFFSET   0.000000   0.093605   0.000000
        CHANNELS 3 Xrotation Yrotation Zrotation
        JOINT lowerback_torso
        {
            OFFSET   0.000000   0.100000   0.000000
            CHANNELS 3 Xrotation Yrotation Zrotation
            JOINT torso_head
            {
                OFFSET   0.000000   0.282350   0.000000
                CHANNELS 3 Xrotation Yrotation Zrotation
                End Site
                {
                    OFFSET   0.000000   0.192650   0.000000
                }
            }
            JOINT rTorso_Clavicle
            {
                OFFSET  -0.001000   0.157500   0.000000
                CHANNELS 3 Xrotation Yrotation Zrotation
                JOINT rShoulder
                {
                    OFFSET  -0.117647   0.000000   0.000000
                    CHANNELS 3 Xrotation Yrotation Zrotation
                    JOINT rElbow
                    {
                        OFFSET  -0.245000   0.000000   0.000000
                        CHANNELS 3 Xrotation Yrotation Zrotation
                        JOINT rWrist
                        {
                            OFFSET  -0.240000   0.000000   0.000000
                            CHANNELS 3 Xrotation Yrotation Zrotation
                            End Site
                            {
                                OFFSET  -0.116353  -0.002500   0.000000
                            }
                        }
                    }
                }
            }
            JOINT lTorso_Clavicle
            {
                OFFSET   0.001000   0.157500   0.000000
                CHANNELS 3 Xrotation Yrotation Zrotation
                JOINT lShoulder
                {
                    OFFSET   0.117647   0.000000   0.000000
                    CHANNELS 3 Xrotation Yrotation Zrotation
                    JOINT lElbow
                    {
                        OFFSET   0.245000   0.000000   0.000000
                        CHANNELS 3 Xrotation Yrotation Zrotation
                        JOINT lWrist
                        {
                            OFFSET   0.240000   0.000000   0.000000
                            CHANNELS 3 Xrotation Yrotation Zrotation
                            End Site
                            {
                                OFFSET   0.116353  -0.002500   0.000000
                            }
                        }
                    }
                }
            }
        }
    }
    JOINT rHip
    {
        OFFSET  -0.100000  -0.051395   0.000000
        CHANNELS 3 Xrotation Yrotation Zrotation
        JOINT rKnee
        {
            OFFSET   0.000000  -0.410000   0.000000
            CHANNELS 3 Xrotation Yrotation Zrotation
            JOINT rAnkle
            {
                OFFSET   0.000000  -0.390000   0.000000
                CHANNELS 3 Xrotation Yrotation Zrotation
                JOINT rToeJoint
                {
                    OFFSET   0.000000  -0.050000   0.130000
                    CHANNELS 3 Xrotation Yrotation Zrotation
                    End Site
                    {
                        OFFSET  -0.010000   0.002000   0.060000
                    }
                }
            }
        }
    }
    JOINT lHip
    {
        OFFSET   0.100000  -0.051395   0.000000
        CHANNELS 3 Xrotation Yrotation Zrotation
        JOINT lKnee
        {
            OFFSET   0.000000  -0.410000   0.000000
            CHANNELS 3 Xrotation Yrotation Zrotation
            JOINT lAnkle
            {
                OFFSET   0.000000  -0.390000   0.000000
                CHANNELS 3 Xrotation Yrotation Zrotation
                JOINT lToeJoint
                {
                    OFFSET   0.000000  -0.050000   0.130000
                    CHANNELS 3 Xrotation Yrotation Zrotation
                    End Site
                    {
                        OFFSET   0.010000   0.002000   0.060000
                    }
                }
            }
        }
    }
}
MOTION
Frames: 11
Frame Time:   0.008333
 -2.282541   0.917405   5.563066  -2.229865 -43.935844  11.645807   8.043507  -4.018115   2.584199   3.825810  -6.640896   6.752058   4.959500 -10.461213   4.228162   3.371484  -0.280054  12.375023  12.951605  11.411844  45.366223   0.007434  25.803135   0.044465   5.775927   2.631066   1.639961   4.192406  -6.505713 -13.079110  14.338130 -35.287487 -43.051591   0.002208 -29.613461   0.012739   9.705993  -0.893925  -1.661785 -12.326365  17.958381   1.204634  20.247144   0.005773   0.055393   2.584441  23.102821  -6.904169  -2.146720   0.001959   0.019998 -19.793501  15.795664   0.552667  93.230883  -0.059678  -0.017460   5.089458  -6.160024 -15.074278  -0.883134  -0.018588   0.000054
 -2.282797   0.919691   5.569015  -1.663001 -46.899028  12.381376   7.953058  -3.751061   2.263561   4.058668  -6.377521   6.720063   5.131981 -10.260372   4.192026   3.357605  -0.153982  12.612466  12.936633  11.851407  45.326008   0.007287  26.431755   0.046122   5.714274   2.509222   1.577548   4.295323  -6.352659 -13.237339  14.592805 -34.700265 -43.006481   0.002426 -29.831837   0.013916   9.685063  -0.880000  -1.639874 -11.901072  17.729154   0.955237  19.960980   0.005995   0.052300   2.977885  23.109244  -7.105652  -3.082093   0.005571   0.041743 -19.961833  16.510593   0.567300  93.515835  -0.053400  -0.015269   4.944201  -5.599705 -15.361811  -0.647853  -0.018975   0.000395
 -2.283201   0.922082   5.574870  -1.011563 -49.845676  13.213876   7.852645  -3.508717   1.941726   4.287736  -6.127488   6.676583   5.293824 -10.069510   4.150980   3.358587  -0.048646  12.857614  12.929244  12.263117  45.314763   0.007012  27.023578   0.047239   5.655785   2.432101   1.567364   4.416870  -6.191829 -13.390229  14.843160 -34.140271 -42.976512   0.002581 -30.031696   0.014618   9.661004  -0.861755  -1.614478 -11.519538  17.462536   0.692104  19.722314   0.005959   0.048560   3.463952  23.056910  -7.344537  -4.236007   0.008607   0.066017 -20.051994  17.217536   0.562593  93.759749  -0.047558  -0.013315   4.809960  -5.076226 -15.630103  -0.427645  -0.019049   0.000634
 -2.283718   0.924485   5.580628  -0.262225 -52.742937  14.143875   7.750480  -3.293177   1.635488   4.503538  -5.901175   6.632446   5.442744  -9.892068   4.110377   3.372114   0.038757  13.095199  12.930359  12.642626  45.316181   0.006545  27.574372   0.047715   5.598873   2.362324   1.590459   4.543885  -6.034743 -13.534013  15.082097 -33.614340 -42.957944   0.002650 -30.216752   0.014983   9.637710  -0.839790  -1.612192 -11.168436  17.213408   0.414597  19.498274   0.005813   0.045049   3.978927  22.997271  -7.582294  -5.480862   0.010222   0.087557 -20.098932  17.880968   0.540612  93.995984  -0.042733  -0.011713   4.686773  -4.587400 -15.879329  -0.223450  -0.018859   0.000786
 -2.284338   0.926842   5.586274   0.602397 -55.582124  15.182194   7.650453  -3.101733   1.349302   4.706041  -5.698189   6.592247   5.580262  -9.726975   4.072234   3.394935   0.111287  13.319551  12.938591  12.991160  45.322558   0.005916  28.085837   0.047606   5.544076   2.286570   1.629876   4.668294  -5.885234 -13.667389  15.306754 -33.122028 -42.945245   0.002635 -30.388929   0.015085   9.615450  -0.817244  -1.624738 -10.845654  16.986647   0.130193  19.283389   0.005603   0.041859   4.495335  22.938822  -7.811523  -6.764612   0.010429   0.105159 -20.116691  18.499341   0.509024  94.229255  -0.038800  -0.010406   4.573769  -4.130929 -16.110802  -0.034407  -0.018454   0.000873
 -2.285055   0.929117   5.591796   1.605817 -58.359551  16.348500   7.554791  -2.931738   1.084459   4.895971  -5.516466   6.557616   5.707869  -9.573233   4.037074   3.424145   0.171753  13.528723  12.952187  13.311150  45.330198   0.005179  28.560605   0.047002   5.491596   2.202116   1.675804   4.786009  -5.744634 -13.789635  15.516294 -32.661686 -42.934809   0.002552 -30.549446   0.014981   9.594266  -0.794886  -1.642467 -10.550685  16.781053  -0.154309  19.076568   0.005354   0.038960   4.998641  22.883514  -8.029929  -8.057829   0.009486   0.118707 -20.113260  19.075102   0.472591  94.457718  -0.035534  -0.009323   4.469932  -3.704670 -16.325849   0.140294  -0.017880   0.000910
 -2.285868   0.931258   5.597187   2.774286 -61.068423  17.674336   7.463766  -2.782435   0.834408   5.073647  -5.355073   6.526775   5.826677  -9.430093   4.004757   3.458586   0.221466  13.722744  12.970159  13.604963  45.338662   0.004383  29.001579   0.045992   5.441373   2.110487   1.724840   4.895318  -5.612753 -13.898105  15.711358 -32.230946 -42.923514   0.002411 -30.699326   0.014711   9.574213  -0.773258  -1.659821 -10.284684  16.596119  -0.429864  18.864275   0.005148   0.036640   5.492797  22.837282  -8.234998  -9.323254   0.007801   0.127869 -20.091661  19.611743   0.428611  94.680721  -0.032776  -0.008411   4.374364  -3.306647 -16.525689   0.301605  -0.017177   0.000911
 -2.287238   0.932679   5.602656   3.860584 -63.776236  19.069397   7.370980  -2.557589   0.457293   5.327819  -5.171211   6.464255   5.883007  -9.179430   3.814971   3.496608   0.211846  13.895387  13.071588  13.846158  45.428166   0.003839  29.431835   0.044691   5.409561   2.025841   1.712567   4.959294  -5.513857 -13.955605  15.790710 -31.689525 -42.974441   0.001995 -30.827387   0.013723   9.556363  -0.815268  -1.763161  -9.792873  15.767008  -0.786610  18.779767   0.004653   0.031916   5.074829  21.846497  -8.326733  -9.553553   0.005944   0.111478 -19.772928  20.364729   0.429129  94.826389  -0.028775  -0.007102   4.316416  -3.015572 -16.724347   0.488138  -0.016674   0.001092
 -2.288878   0.933409   5.607997   5.158614 -66.321985  20.725309   7.222198  -2.354333   0.057511   5.538797  -5.008705   6.373482   5.926528  -8.939857   3.618455   3.570548   0.173127  14.065631  13.192705  14.051563  45.526031   0.003294  29.823722   0.042771   5.380486   1.911190   1.737070   5.018725  -5.408908 -13.988609  15.870698 -31.170999 -43.004350   0.001540 -30.942491   0.012598   9.536129  -0.834476  -1.826719  -9.274847  14.962261  -1.054245  18.733073   0.004066   0.026884   4.650475  20.975250  -8.392630 -10.193331   0.004946   0.112931 -19.451112  21.092173   0.448802  94.965492  -0.025328  -0.005890   4.263949  -2.745642 -16.910612   0.669482  -0.016028   0.001372
 -2.290579   0.933587   5.613238   6.829626 -68.771147  22.771034   7.051541  -2.149498  -0.326768   5.704372  -4.852267   6.268266   5.958555  -8.714933   3.428399   3.647035   0.132024  14.217466  13.312526  14.236440  45.611856   0.002753  30.184739   0.040571   5.353882   1.772171   1.766875   5.071149  -5.306851 -14.016498  15.944517 -30.683418 -43.026612   0.001127 -31.048527   0.011516   9.515864  -0.837656  -1.854600  -8.770396  14.174341  -1.295890  18.701918   0.003496   0.022380   4.188918  20.101299  -8.473518 -11.354502   0.003898   0.132508 -19.150082  21.787057   0.479802  95.088842  -0.022277  -0.004822   4.215246  -2.494014 -17.084898   0.836276  -0.015263   0.001625
 -2.292242   0.933306   5.618394   9.050213 -71.177167  25.356686   6.884853  -1.932012  -0.676795   5.839842  -4.688674   6.161859   5.984577  -8.503663   3.248859   3.707163   0.103420  14.347766  13.418134  14.412299  45.680473   0.002238  30.522317   0.038366   5.329345   1.632576   1.781137   5.116892  -5.210804 -14.044930  16.010519 -30.228194 -43.046912   0.000789 -31.147459   0.010561   9.495481  -0.834469  -1.858364  -8.310939  13.403463  -1.549697  18.646696   0.003237   0.019439   3.689681  19.220752  -8.571434 -13.043330   0.000096   0.167147 -18.868371  22.445527   0.528743  95.195956  -0.019597  -0.003921   4.169920  -2.259338 -17.247837   0.989048  -0.014497   0.001814
